<svg xmlns="http://www.w3.org/2000/svg" xmlns:xlink="http://www.w3.org/1999/xlink" viewBox="0 0 1152.63 1396.85"><defs><style>.cls-1{fill:#524fa1;}.cls-2{fill:#fdb913;}.cls-3{fill:none;}.cls-4{fill:#1a1a1a;}.cls-5{fill:url(#linear-gradient);}.cls-6{fill:#b5917c;}</style><linearGradient id="linear-gradient" x1="372.29" y1="1239.91" x2="670.59" y2="669.73" gradientUnits="userSpaceOnUse"><stop offset="0" stop-color="#b5917c"/><stop offset="0.63" stop-color="#a26d56"/><stop offset="1" stop-color="#7a5246"/></linearGradient></defs><title>Asset 2addde123</title><g id="Layer_2" data-name="Layer 2"><g id="Layer_1-2" data-name="Layer 1"><path class="cls-1" d="M219.83,288.93c.31.87.6,1.75.9,2.61A74.78,74.78,0,0,1,224,304.09a34.52,34.52,0,0,1-.33,12.1c-.72,3.83-1.87,7.61-2.75,11.76a61.51,61.51,0,0,1-.2,10c-.4,8.43-1.37,17.13-2.49,25.91-.37,2.93-.76,5.86-1.14,8.79-.16,3.06-.41,6.22-.78,9.41a52.24,52.24,0,0,0-2.84,8.93,91.07,91.07,0,0,0-1.62,9.6,127.27,127.27,0,0,0-1.71,19c-.12,3.27-.21,6.55-.37,9.84-.18,2.6-.42,5.46-.73,8.47-2.76,15.36-.71,31.68-11,44.94-4.37,12-11.77,19.32-18,18.61-8.37-1-12.33-14.24-13.72-20.89-4-18.92-.52-38.91,6.89-56.55,4.33-10.31,10.25-19.83,15.41-29.73,6.26-12,9.27-25.81,12.38-38.95,3-12.72,5.19-25.59,8-38.34,2.57-11.64,6.67-23,7.69-35,0,.56,1.48,2.73,1.78,3.45C219,286.56,219.42,287.74,219.83,288.93Z"/><path class="cls-2" d="M158.74,679.51c3.3-20.66-1.7-41.66-5.77-61.27-.59-3.07-1.23-6.08-1.89-9-.49-2.7-.94-5.41-1.29-8.13s-.62-5.44-.75-8.18c0-3.68.16-7.36.45-11,1.19-15.19,4.71-30.11,9.29-44.61,9.45-29.94,23.38-58.22,34.3-87.63a414.23,414.23,0,0,0,25.53-127.82c.34-8.68.48-17.72,4.5-25.43s13.31-13.55,21.55-10.6c5.4,1.92,9,7,11.79,11.91,17.06,29.94,19.5,65.79,18.95,100.17-1.21,75.58-14.78,152.36,2.49,226,12,51,38.19,97.58,66.34,141.93s58.66,87.51,80.66,135.14,35.21,100.94,26.38,152.59-42.84,100.93-92.67,118.41c-9,3.17-20,5-27.36-1.13-6.21-5.14-7.43-14-8.12-22a1018.47,1018.47,0,0,1-1.39-157.1l36.46,117.83c-.84-2.69-6-6.47-8-8.61q-4.68-5.13-9.27-10.34-8.81-10-17.27-20.34-16.91-20.64-32.33-42.42a773.23,773.23,0,0,1-55.43-91,764.82,764.82,0,0,1-68.53-189.69q-1.12-5.21-2.17-10.41C159,718.85,162,699.85,159,681.94,158.86,681.15,158.8,680.34,158.74,679.51Z"/><path class="cls-3" d="M160,428.18a253.83,253.83,0,0,1,25.67-14.33c13.74-6.66,24.49-10.33,39.33-15.33,11.56-3.9,24.17-8.16,41.67-12.34,25.44-6.07,38.17-9.11,48-8.33,7,.56,19.76,2.48,34.33-1.33,1.85-.49,4.95-1.38,8-2.34,14.24-4.44,16.15-6.61,23.67-8.33,9.1-2.08,9.47.38,19.33-1.33a66.78,66.78,0,0,0,21-7.67c8.11-4.3,24.19-9.53,56.33-20,29.86-9.72,54.64-13.46,72-16a500.66,500.66,0,0,1,88.67-5,8.84,8.84,0,0,1,4.33,1.67c3.22,2.42,3.61,6.63,4,10,2,17.49,5.56,22.42,2,25.83-1,1-2.63,1.71-5.83,3.17-3.88,1.76-5.15,1.69-7,3-.8.56-3,2.31-4.67,7.16-2.89,8.57-.56,16.83.5,32,.53,7.54.52,13.46.5,17.17,0,7.29,0,13.47-.83,19.17-.58,4.27-2.79,20.45-13.83,32.33-5.47,5.88-13.34,9-28.84,15-12.76,4.94-23.84,9.23-40,12.67-20.57,4.38-36.14,4.57-50.33,4.66-19.4.13-24.77-1.71-27.83-3-9.76-4.09-15.13-10.44-25.17-22.33-10.36-12.27-16.67-23.24-22.5-33.5-6-10.58-10.4-19.7-13.33-26.17a18.37,18.37,0,0,0-6.84-7c-4.58-2.59-9.12-2.25-14.83-1.83-4.72.35-7.37.54-10.5,2.33a18.71,18.71,0,0,0-7.83,9.17,21,21,0,0,0-1.34,9c.25,7.9-1.34,15.76-1.66,23.67a173,173,0,0,1-3.84,29.33q-5.91,20.5-11.83,41a96.15,96.15,0,0,1-12,10,103.21,103.21,0,0,1-20.5,11c-20.61,8.53-40.39,11.11-51,12-13.71,1.15-23.6,1.89-36.25-1.75A77.06,77.06,0,0,1,212,543.35a81.34,81.34,0,0,1-14.75-20c-3-5.67-4.93-11.94-8.75-24.25-4.23-13.62-7.35-23.73-8.75-28.25a25.69,25.69,0,0,0-16.25-6.75l-6-22.5Z"/><path class="cls-4" d="M243.54,279.85l-16,17.49c-1.9,2.08-16-3.15-17.75-4.84a18.57,18.57,0,0,1-3.82-6.2c-13.69-31.32-11.39-65.74-5.51-98.64,5.27-29.5,16.51-59.52,40.57-78.81,7.77-6.23,14.66-13.2,19.39-22.07,5.12-9.6,11.41-14.2,21.64-17.94,12.9-4.72,26-9.14,38.27-15.38C333,47,342.65,33.81,358.51,38c11.49,3.06,13.11-4.69,19.26-12.72C387.92,12.06,409.6,7.79,425.2,4.61,449-.23,473-2.73,496.71,4.64c24.95,7.76,44.59,27.21,64.34,43.41,10.5,8.62,21.3,17.37,31.13,27,2.46,2.4,4.86,4.86,7.23,7.35C628,100.85,638,136.85,641.3,169.26q1.05,4.38,2.26,8.67c4.08,14.24,9.86,27.49,22.17,36.78,2.21,1.94,4.48,3.83,6.66,5.81a65.73,65.73,0,0,1,6.14,6.24,62.83,62.83,0,0,1,8.05,9.51,38.37,38.37,0,0,1,5.24,11.32c3.38,12.6,2.18,27.12,3.51,40.12,2.08,20.37,5.39,41.16,10.79,61.14,5.33,19.72,17.26,40,9.87,60.76a15.21,15.21,0,0,1-5.86,7.93c-5.4,3.41-13.58,2.41-19-.5-6.72-3.6-11.47-10.07-14.87-16.9-8.82-17.69-14.56-36.72-19.76-55.7l-11.17-40.79c-3.42-12.51-6-25-8.2-37.77-1.8-10.58-3.86-21.31-8.45-31.08-3.95-8.43-5.8-17.77-8.06-26.84-4.44-17.85-9.76-36.45-24.76-48.41-11.55-9.21-28.13-14.07-42.9-13.17-23.92,1.47-46.92.47-70.92-4.53-9-2-18-4-27.24-1q-4.57.9-9.11,1.93-9.07,2.06-17.95,4.68c-3,.88-5.9,1.8-8.81,2.79-19.74,10-38.43,21.5-58.42,28.76-3.33,1.21-6.7,2.3-10.12,3.24-4.67,1.3-9.51,2.2-14.06,3.4a53.63,53.63,0,0,0-6.53,2.11q-3.9,2.84-7.89,5.52c-2.66,1.79-5.36,3.54-8.07,5.25C296,210.85,282,225.85,263,237.85c-11,7-16,20-18.05,32.82C244.17,275.77,243.54,279.85,243.54,279.85Z"/><path class="cls-5" d="M368,825.13l10.33,45.93L383,920.43l-5,48.35-10,21.41-10,7.59-6,17.27a104.94,104.94,0,0,0-4,18.3c-2.39,18.88.91,34.35,3.33,45.23,4.22,19,7.85,21.33,8.67,35.91.37,6.6-.22,8.75-1.67,23.83-2.58,27-3.88,40.57-2.66,51.8a100.92,100.92,0,0,0,10.66,37.29c7.05,13.5,15.66,21.87,21.67,27.62,10.85,10.39,20.73,16.07,28.33,20.38,10.45,5.92,20.18,11.43,33.34,13.81a178.7,178.7,0,0,0,22.66,2.07c3.71.1,6.81.06,9,0,3.38-2.94,8.52-7.47,14.67-13.12,15.14-13.89,22.41-21.68,43.33-42.82,31.94-32.27,38.8-38.18,44-42.47,12.89-10.64,15.16-11,23.67-18.65,13.25-11.84,16.47-22.12,35.67-45.58,3.89-4.76,7.18-8.58,9.33-11.05l25-37.29V852.05c-1-9.23-.44-19.72.36-30.5.26-3.6.56-7.24.82-10.94C678,782,693,739.49,666,724c-26-15.54-36,32.11-46,53.86-3,5.18-5,11.4-10,15.95a31.46,31.46,0,0,1-4.92,4.74,23.33,23.33,0,0,1-6,3.34c-2.86,1.16-5.93,2.24-9.12,3.35l-50.28,17.51Z"/><path class="cls-6" d="M263.07,634.4c.63,1.5,1.24,3,1.81,4.43q5.43,14,11.44,27.84a507.17,507.17,0,0,0,32.93,64.11c13.29,21.59,26.44,43.28,40.53,64.35,7.11,10.63,14.46,21.11,22.18,31.3,7.54,10,16.39,19,23.81,29,6.25,8.42,12,13.21,22.1,16.79,22.78,8.06,47.61,11.26,71.3,6.23a208.5,208.5,0,0,0,61.16-23.66c30.33-17.61,52.76-42,73.13-70.26,8.16-11.33,17.88-21.75,25.58-33.41l14-22.71c5.48-8.89,8.3-15.74,9.16-26.23a328.85,328.85,0,0,1,5.2-35.08c4.65-24.21,10-48,11.16-72.73.14-3.22.35-6.42.61-9.62s.55-6.38.89-9.57c1-22.33,18-39.33,22-61.33,4-15-5-28-5.68-43.26-.11-3.21-.33-6.43-.64-9.64a171.52,171.52,0,0,0-5.4-28.76q-.26-5.38-.68-10.74c-1.42-17.86-4.14-35.53-6.93-53.45-.51-3.28-6.58-8.05-8.64-10.53a116.56,116.56,0,0,1-10.81-15c-2.48-4.23-4.57-8.68-6.62-13.14-6.63-14.41-13.18-28.94-18.9-43.74-5.19-13.42.94-21,3-34.08a142.23,142.23,0,0,0,1.71-27.5c-.18-4.68-2.33-8.54-4.17-12.81-3.57-8.28-5.65-17.15-12.38-23.37-7.71-7.12-14.83-14.73-23.07-21.26-12.28-9.73-26.37-16.61-41-22C557.05,139,542,133.08,526.1,133.07c-11.76,0-23.42.22-35.11-.42a149.33,149.33,0,0,0-37.32,2.65c-24.62,4.91-48.49,14.84-72.3,22.71l-31,13c-6.45,2.72-13,5.28-19.36,8.15-10.58,4.75-23.86,5.51-35.35,7a32.26,32.26,0,0,0-7.8,1.65c-7.87,3.12-14.28,8.78-21.18,13.54-7.87,5.44-11.68,12.76-14.48,21.81A203.3,203.3,0,0,0,244.38,261c-.86,7.8-1.92,15.59-2.27,23.44-.35,7.68.83,15.64,1.43,23.35.9,10.85,1.69,21.7,2.53,32.55.41,5.28,1.81,11.42,1.3,16.68-.38,4-2.73,7.81-4.86,11.1-2.63,4-5.32,8.25-6,13-.83,5.4.89,11.64,3.67,16.27,1.06,1.77,5.63,6.77,7.52,5.16,1.56,12.53,1.69,24.74,4.9,37.14a149.53,149.53,0,0,0,7.85,22.66c1.59,3.61,4.39,6.95,5.3,10.84,1,4.32-.77,8.52-2.31,12.5-4.79,12.35-7.09,25.1-9.6,38.05l-2.5,37.1,1.25,30,4,24.49C257.58,621.71,260.48,628.22,263.07,634.4Z"/><path class="cls-1" d="M1152,1099.2c0-8.75,3.41-19.88-5.66-24q-13.87-6.26-27.77-12.47c-36.21-16.27-72.79-32.93-107.91-50.79-34.16-17.36-67.78-35.8-100.5-55.77q-24.51-15-48.27-31.11c-13.2-9-25.25-17.61-33.93-30.85C822.43,879,815.32,864.07,810,849.52c0,0,.09-1.56.25-4.15l3.08-51.85L814,684.18V605.85l-4-45.33-7.33-60-18-85.67-16.34-60.67-2.66-20.33-9-16.33-13.34-44-21.66-37.34-29.34-39.66L670,167.18l-27-43.33L612.71,95.18,630,120.85l8,38.33,11,38,11,28.67,11,10.67,6.33,30.33,9,44.33,11,20L703,346.52l-2.33,26L703,403.18l-5,19-.67,9L701,441.85l3.33,6.33v11L701,463.85l.67,8.33,2.66,16v11.67l-3.66,9.67v18.66l-6.34,15.34-3.66,19.33-.34,23.67L687,619.18l-8,44-8.67,49.67-6.33,44-7.67,41-2,51.33v73l1.67,80.67s-.15,4.25-.35,10.69c-3.65,30.31,5.35,61.31-5.65,91.31.91-.59,1.83-1.11,2.76-1.59l-12.2,15.1c-23.45,28.93-49.72,55.07-77.27,80.35-25,23-49.34,46.4-74,69.85-6.3,6-11.61,7.28-20.14,6.12-38.12-5.15-75.75-28.37-99.81-58.21a69.83,69.83,0,0,1-8.41-12.55c-4.26-8.55-5.63-18.1-6.47-27.51-.77-8.65-2.58-17.12-3.1-25.86-1-17.29,3.8-35.23-3.61-51.68-6.41-14.22-19.52-24.25-28-37.12-8.35-12.68-14-26.84-21.93-39.77s-22.09-21.7-31.69-33.36c-13.79-16.74-19-43.21-40.13-53.11-18.33-8.59-39.34,1-57.66,5.15-50.7,11.45-103.21,14.51-151.85,34.23-7.67,3.11-11.81,6.65-14,11-3.06,6-2.51,13.4-2.51,23.28v387.69H1152v-82q0-90.37,0-180.75Q1152,1116.65,1152,1099.2Z"/></g></g></svg>